<mxfile host="app.diagrams.net" modified="2021-11-12T12:46:49.561Z" agent="5.0 (Windows NT 10.0; Win64; x64) AppleWebKit/537.36 (KHTML, like Gecko) Chrome/95.0.4638.69 Safari/537.36" etag="L2v1mmXrStxDRy6uq9wT" version="15.6.8" type="github">
  <diagram id="8TdLIPopn4LmDMFA2V7e" name="Page-1">
    <mxGraphModel dx="2062" dy="1057" grid="1" gridSize="10" guides="1" tooltips="1" connect="1" arrows="1" fold="1" page="1" pageScale="1" pageWidth="827" pageHeight="1169" math="0" shadow="0">
      <root>
        <mxCell id="0" />
        <mxCell id="1" parent="0" />
        <mxCell id="JBjD5-3qBPt8cEF-6UL2-1" value="初始化通过ajax" style="rounded=1;whiteSpace=wrap;html=1;" parent="1" vertex="1">
          <mxGeometry x="80" y="60" width="90" height="100" as="geometry" />
        </mxCell>
        <mxCell id="UaSKzbqjq_f4HYDmzKYr-1" value="imageController" style="rounded=0;whiteSpace=wrap;html=1;" parent="1" vertex="1">
          <mxGeometry x="320" y="80" width="120" height="60" as="geometry" />
        </mxCell>
        <mxCell id="UaSKzbqjq_f4HYDmzKYr-5" value="" style="endArrow=classic;html=1;rounded=0;exitX=0.989;exitY=0.404;exitDx=0;exitDy=0;exitPerimeter=0;entryX=0;entryY=0.5;entryDx=0;entryDy=0;" parent="1" source="JBjD5-3qBPt8cEF-6UL2-1" target="UaSKzbqjq_f4HYDmzKYr-1" edge="1">
          <mxGeometry width="50" height="50" relative="1" as="geometry">
            <mxPoint x="260" y="150" as="sourcePoint" />
            <mxPoint x="310" y="100" as="targetPoint" />
          </mxGeometry>
        </mxCell>
        <mxCell id="UaSKzbqjq_f4HYDmzKYr-6" value="" style="endArrow=classic;html=1;rounded=0;exitX=-0.005;exitY=0.819;exitDx=0;exitDy=0;exitPerimeter=0;entryX=1;entryY=0.6;entryDx=0;entryDy=0;entryPerimeter=0;" parent="1" source="UaSKzbqjq_f4HYDmzKYr-1" target="JBjD5-3qBPt8cEF-6UL2-1" edge="1">
          <mxGeometry width="50" height="50" relative="1" as="geometry">
            <mxPoint x="260" y="150" as="sourcePoint" />
            <mxPoint x="310" y="100" as="targetPoint" />
          </mxGeometry>
        </mxCell>
        <mxCell id="UaSKzbqjq_f4HYDmzKYr-7" value="goodsController指定返回的页面，设置vo" style="rounded=1;whiteSpace=wrap;html=1;" parent="1" vertex="1">
          <mxGeometry x="80" y="210" width="90" height="100" as="geometry" />
        </mxCell>
        <mxCell id="UaSKzbqjq_f4HYDmzKYr-8" value="" style="endArrow=classic;html=1;rounded=0;exitX=0.989;exitY=0.404;exitDx=0;exitDy=0;exitPerimeter=0;" parent="1" edge="1">
          <mxGeometry width="50" height="50" relative="1" as="geometry">
            <mxPoint x="170.0000000000001" y="240.00000000000003" as="sourcePoint" />
            <mxPoint x="321" y="240" as="targetPoint" />
          </mxGeometry>
        </mxCell>
        <mxCell id="UaSKzbqjq_f4HYDmzKYr-9" value="找到响应的hmtl teamplate，thymealf对tag解析，重新生成html" style="rounded=0;whiteSpace=wrap;html=1;" parent="1" vertex="1">
          <mxGeometry x="330" y="220" width="120" height="60" as="geometry" />
        </mxCell>
        <mxCell id="UaSKzbqjq_f4HYDmzKYr-10" value="" style="endArrow=classic;html=1;rounded=0;exitX=1;exitY=0.5;exitDx=0;exitDy=0;entryX=-0.017;entryY=0.52;entryDx=0;entryDy=0;entryPerimeter=0;" parent="1" source="UaSKzbqjq_f4HYDmzKYr-9" target="UaSKzbqjq_f4HYDmzKYr-11" edge="1">
          <mxGeometry width="50" height="50" relative="1" as="geometry">
            <mxPoint x="430.0000000000001" y="300" as="sourcePoint" />
            <mxPoint x="581" y="300" as="targetPoint" />
          </mxGeometry>
        </mxCell>
        <mxCell id="UaSKzbqjq_f4HYDmzKYr-11" value="真正的html" style="rounded=0;whiteSpace=wrap;html=1;" parent="1" vertex="1">
          <mxGeometry x="520" y="220" width="120" height="60" as="geometry" />
        </mxCell>
        <mxCell id="UaSKzbqjq_f4HYDmzKYr-17" value="" style="edgeStyle=orthogonalEdgeStyle;rounded=0;orthogonalLoop=1;jettySize=auto;html=1;" parent="1" source="UaSKzbqjq_f4HYDmzKYr-14" target="UaSKzbqjq_f4HYDmzKYr-7" edge="1">
          <mxGeometry relative="1" as="geometry" />
        </mxCell>
        <mxCell id="UaSKzbqjq_f4HYDmzKYr-19" style="edgeStyle=orthogonalEdgeStyle;rounded=0;orthogonalLoop=1;jettySize=auto;html=1;entryX=0;entryY=0.5;entryDx=0;entryDy=0;" parent="1" source="UaSKzbqjq_f4HYDmzKYr-14" target="JBjD5-3qBPt8cEF-6UL2-1" edge="1">
          <mxGeometry relative="1" as="geometry" />
        </mxCell>
        <mxCell id="UaSKzbqjq_f4HYDmzKYr-14" value="http:xx.deatail" style="shape=process;whiteSpace=wrap;html=1;backgroundOutline=1;" parent="1" vertex="1">
          <mxGeometry x="10" y="160" width="110" height="20" as="geometry" />
        </mxCell>
        <mxCell id="UaSKzbqjq_f4HYDmzKYr-15" value="" style="endArrow=classic;html=1;rounded=0;" parent="1" edge="1">
          <mxGeometry width="50" height="50" relative="1" as="geometry">
            <mxPoint x="290" y="230" as="sourcePoint" />
            <mxPoint x="340" y="180" as="targetPoint" />
          </mxGeometry>
        </mxCell>
        <mxCell id="UaSKzbqjq_f4HYDmzKYr-16" value="" style="endArrow=classic;html=1;rounded=0;" parent="1" edge="1">
          <mxGeometry width="50" height="50" relative="1" as="geometry">
            <mxPoint x="290" y="230" as="sourcePoint" />
            <mxPoint x="340" y="180" as="targetPoint" />
          </mxGeometry>
        </mxCell>
        <mxCell id="UaSKzbqjq_f4HYDmzKYr-18" value="" style="endArrow=classic;html=1;rounded=0;" parent="1" edge="1">
          <mxGeometry width="50" height="50" relative="1" as="geometry">
            <mxPoint x="290" y="230" as="sourcePoint" />
            <mxPoint x="340" y="180" as="targetPoint" />
          </mxGeometry>
        </mxCell>
      </root>
    </mxGraphModel>
  </diagram>
</mxfile>
